<svg width="48" height="48" viewBox="0 0 512 512" fill="none" xmlns="http://www.w3.org/2000/svg">
<rect width="512" height="512" rx="256" fill=""/>
<path d="M180.441 264.008C180.006 262.952 179.925 262.152 180.074 260.784C181.06 259.474 181.167 258.557 180.764 257.158C180.697 250.716 180.878 244.687 181.365 237.95C183.798 235.479 182.687 233.126 182.513 230.521C186.862 198.217 205.436 176.928 234.436 162.191C231.522 160.771 229.31 159.783 227.18 158.642C195.015 141.427 177.01 114.965 174.765 78.2322C174.524 74.2911 174.568 70.4555 179.614 68.464C180.587 68.6106 180.871 68.7601 181.56 68.6502C197.045 67.8846 212.153 67.0713 226.994 70.7953C256.586 78.2205 277.888 95.8934 291.685 124.116C296.029 115.058 299.482 106.246 305.611 99.0699C318.062 84.4914 331.874 72.4982 352.517 71.1425C356.382 70.8887 360.566 68.3686 365 68.0627C368.873 67.7955 371.917 68.7339 373.937 72.8452C372.205 81.9199 373.479 90.3806 373.567 99.4631C374.381 103.287 372.089 104.33 369.245 105.35C366.005 104.037 363.297 104.541 360.25 105.407C365.324 121.813 356.516 144.019 339.645 156.783C337.54 158.375 335.202 159.66 332.528 161.535C329.852 167.532 323.582 166.574 319.256 169.866C328.641 176.452 336.83 183.902 342.981 193.399C356.055 213.587 360.796 235.6 357.543 259.351C357.021 263.165 356.939 267.005 356.254 271.463C352.02 300.961 342.201 327.73 326.849 352.46C313.246 374.372 295.883 392.773 274.843 407.694C272.905 409.068 270.972 410.45 267.832 410.769C241.311 426.736 213.602 437.548 182.676 441.498C181.122 440.733 180.192 440.708 178.84 441.282C177.678 441.765 176.892 441.939 175.519 441.941C174.624 441.555 174.315 441.341 173.596 441.512C129.819 452.47 96.4909 417.463 108.459 373.897C114.407 352.242 128.364 335.995 144.433 321.317C159.184 307.843 172.931 293.796 177.492 273.356C178.004 271.06 178.39 268.736 179.279 265.934C180.43 265.367 180.787 264.974 180.441 264.008Z" fill="#2A2B4C"/>
<path d="M354.014 273.176C355.041 257.238 357.703 241.865 354.204 226.706C349.264 205.301 339.696 186.649 320.439 174.292C318.124 172.806 316.456 170.31 314.502 168.296C319.947 166.285 325.434 164.259 331.503 162.108C337.347 163.863 342.609 165.743 348.546 167.739C350.79 172.249 354.131 174.706 357.955 177.247C371.717 186.391 383.679 197.251 388.638 214.595C390.581 256.132 386.06 296.27 374.107 335.392C366.087 361.642 355.169 386.463 334.399 405.642C328.883 410.735 322.808 414.807 315.801 417.442C313.554 418.287 310.879 418.881 309.043 417.08C306.786 414.866 308.858 412.587 310.182 410.825C333.538 379.766 342.414 343.419 348.758 306.085C350.581 295.357 353.636 284.83 354.014 273.176Z" fill="#F1E77F"/>
<path d="M353.954 273.101C351.065 323.884 341.27 373.203 309.097 416.591C318.388 415.454 325.223 410.769 331.466 405.224C353.112 385.999 364.022 360.495 372.139 333.638C383.785 295.106 387.926 255.561 386.665 214.544C394.117 218.22 392.803 226.445 395.211 233.836C395.46 234.986 395.545 235.451 395.721 236.624C395.899 238.286 395.953 239.243 395.989 240.928C395.999 244.589 395.939 247.524 396.13 251.203C396.894 260.575 394.511 268.989 394.426 278.313C394.272 281.042 394.196 283.024 393.976 285.725C390.316 311.995 386.333 337.452 377.358 361.816C370.985 379.12 363.731 395.965 351.927 410.413C342.703 421.703 331.845 430.538 316.269 433.222C312.849 433.362 310.125 433.333 306.774 432.88C298.19 430.658 290.826 427.328 284.302 422.268C281.701 420.251 278.904 418.863 274.942 418.919C272.284 416.331 270.181 413.996 267.625 411.272C297.765 389.298 322.093 362.403 337.576 327.969C345.387 310.597 350.78 292.527 353.954 273.101Z" fill="#E6B123"/>
<path d="M393.906 235.743C391.574 228.419 389.621 221.526 387.211 214.165C380.403 196.776 368.258 185.126 352.746 176.674C349.431 174.868 346.19 173.618 349.178 168.476C351.005 163.709 352.742 162.517 357.624 165.222C393.056 184.852 407.916 215.293 405.804 254.913C404.908 271.706 404.418 288.547 401.03 305.81C400.488 306.748 400.243 307.025 400.299 307.77C395.262 347.215 384.886 384.382 360.455 416.183C350.745 428.822 338.652 438.413 322.521 442.049C302.987 446.452 287.432 438.938 273.207 426.561C269.724 423.531 271.27 421.766 274.161 419.216C277.464 415.699 279.977 415.137 283.526 418.76C289.053 424.4 296.106 427.92 304.244 430.437C307.717 432.986 311.081 431.483 314.788 431.455C335.46 427.593 347.937 414.013 358.014 397.777C374.843 370.658 382.853 340.421 388.115 309.313C389.298 302.318 390.183 295.274 391.486 287.596C393.461 285.08 392.547 282.861 392.322 280.324C392.488 270.877 392.945 261.883 393.551 252.096C395.342 248.209 394.239 244.916 394.05 241.21C393.589 239.905 393.476 239.104 393.489 237.705C393.837 236.797 394.06 236.486 393.906 235.743Z" fill="#2C2B4D"/>
<path d="M374.055 99.3103C370.577 91.7341 372.468 83.1281 373.382 74.061C373.997 81.8574 374.097 90.176 374.055 99.3103Z" fill="#06063B"/>
<path d="M360.637 105.861C362.001 102.652 364.912 103.593 368.211 104.813C366.213 105.468 363.79 105.652 360.637 105.861Z" fill="#06063A"/>
<path d="M182.021 230.747C184.396 232.075 184.21 234.278 182.183 236.91C181.72 235.311 181.771 233.379 182.021 230.747Z" fill="#181842"/>
<path d="M179.046 441.681C179.116 440.234 180.061 439.786 181.683 441.029C181.171 441.538 180.4 441.655 179.046 441.681Z" fill="#0A0A3C"/>
<path d="M180.375 257.315C181.706 257.562 182.105 258.538 180.715 260.003C180.281 259.439 180.258 258.662 180.375 257.315Z" fill="#0D0D3D"/>
<path d="M179.879 264.151C180.382 264.097 180.678 264.44 180.974 264.784C180.783 264.922 180.593 265.061 180.063 265.321C179.706 265.145 179.689 264.847 179.879 264.151Z" fill="#0D0D3D"/>
<path d="M400.748 307.804C400.299 307.925 399.974 307.63 399.719 307.283C399.681 307.231 399.97 306.939 400.421 306.614C400.787 306.77 400.841 307.07 400.748 307.804Z" fill="#141440"/>
<path d="M173.632 442.015C173.527 441.427 173.576 440.39 174.751 441.473C174.648 441.891 174.364 442.012 173.632 442.015Z" fill="#0A0A3C"/>
<path d="M181.545 68.2965C181.519 68.5871 181.073 68.7823 180.465 68.7198C180.302 68.462 181.124 68.2011 181.545 68.2965Z" fill="#13133F"/>
<path d="M117.601 389.023C121.21 364.355 134.432 345.812 152.239 331.165C181.127 307.406 194.839 277.691 192.934 239.737C192.545 238.617 192.31 238.313 192.462 237.582C195.257 224.968 198.211 213 205.332 202.489C218.335 183.297 236.271 172.049 259.738 168.332C260.564 167.691 260.837 167.421 261.578 167.487C262.842 167.89 263.639 167.957 265.018 167.855C266.828 166.722 268.255 166.9 270.277 167.33C271.683 167.828 272.475 167.969 273.857 167.967C274.758 167.599 275.07 167.375 275.791 167.556C301.175 172.574 321.265 184.418 334.001 207.101C335.003 208.886 335.768 210.804 336.738 213.285C343.018 246.517 334.995 277.058 321.516 306.118C292.639 368.378 243.746 405.621 176.274 417.872C160.397 420.755 144.105 424.249 127.582 416.999C127.042 416.529 126.877 416.669 126.977 416.627C126.762 416.381 126.447 416.177 125.86 415.481C122.027 411.195 120.517 406.414 118.696 401.135C116.089 397.217 117.509 393.4 117.601 389.023Z" fill="#F1E780"/>
<path d="M127.21 417.116C175.129 422.675 218.479 409.723 257.108 381.779C301.611 349.585 327.225 305.447 335.149 250.921C336.867 239.099 336.481 227.367 336.762 214.743C341.078 220.599 341.618 228.362 343.454 236.458C343.976 237.377 344.225 237.666 344.145 238.424C343.702 242.523 343.59 246.154 343.612 250.554C343.99 251.626 344.234 251.93 344.111 252.688C340.969 276.987 336.903 300.492 326.329 322.389C296.508 384.148 247.562 419.63 179.771 429.264C175.676 429.846 171.558 430.267 166.706 430.929C161.8 432.605 157.507 431.568 152.55 431.414C142.345 429.048 133.703 425.495 127.21 417.116Z" fill="#E6B023"/>
<path d="M227.727 85.0015C259.338 91.5718 282.073 120.684 286.395 150.926C286.965 154.91 284.81 155.261 281.809 155.444C258.775 156.844 236.98 153.678 218.04 138.045C220.222 134.775 223.653 135.489 226.8 135.165C237.61 134.051 243.105 127.264 241.575 116.489C240.43 108.422 236.318 101.583 231.996 94.861C230.126 91.9518 227.206 89.5253 227.727 85.0015Z" fill="#019145"/>
<path d="M227.407 84.1937C232.649 92.8242 239.263 100.028 242.397 109.311C246.226 120.655 244.466 129.419 237.124 134.762C231.597 138.786 225.33 137.323 218.495 137.539C200.573 124.691 191.642 107.016 187.777 86.3808C187.156 83.0671 187.485 80.5582 191.906 80.6774C203.6 80.9928 215.462 79.3986 227.407 84.1937Z" fill="#39B44A"/>
<path d="M324.489 150.783C318.558 154.872 312.242 155.627 305.668 155.439C302.358 155.345 300.953 154.17 301.226 150.637C302.567 133.301 330.584 113.769 347.611 118.496C348.068 118.623 348.196 119.933 348.122 121.194C344.996 123.932 341.464 124.796 338.556 126.738C330.205 132.315 323.425 138.894 324.489 150.783Z" fill="#028F45"/>
<path d="M312.385 114.261C317.52 98.7422 342.183 81.1812 357.861 81.0307C360.609 81.0044 361.791 82.1072 361.651 84.5875C361.449 88.1725 363.39 93.6592 358.069 94.19C340.737 95.9193 328.185 107.738 312.385 114.261Z" fill="#88603A"/>
<path d="M324.877 151.234C320.656 141.429 323.802 133.787 335.214 126.094C338.518 123.867 342.059 121.622 347.065 121.645C345.872 135.708 336.946 144.377 324.877 151.234Z" fill="#37B24A"/>
<path d="M152.291 431.579C156.015 431.016 160.208 430.955 165.181 430.994C161.761 434.106 157.238 432.79 152.291 431.579Z" fill="#08184D"/>
<path d="M117.453 388.751C118.099 391.918 118.229 395.533 118.313 399.921C114.728 397.221 116.171 393.17 117.453 388.751Z" fill="#080D47"/>
<path d="M270.582 167.231C269.564 167.767 268.238 167.849 266.256 167.808C266.837 165.73 268.438 165.652 270.582 167.231Z" fill="#0C0F48"/>
<path d="M344.053 252.979C343.68 252.839 343.616 252.535 343.649 251.777C344.339 251.66 345.107 251.925 344.053 252.979Z" fill="#131C4D"/>
<path d="M344.116 238.724C343.731 238.594 343.647 238.297 343.645 237.543C344.306 237.413 345.093 237.641 344.116 238.724Z" fill="#131C4D"/>
<path d="M192.529 237.3C192.926 237.452 193.003 237.75 192.93 238.484C192.452 238.615 192.106 238.324 191.818 237.984C191.784 237.943 192.071 237.632 192.529 237.3Z" fill="#131649"/>
<path d="M276.056 167.644C275.901 168.015 275.603 168.069 274.875 167.973C274.81 167.29 275.064 166.432 276.056 167.644Z" fill="#0C0F48"/>
<path d="M125.664 415.379C126.138 415.079 126.568 415.356 126.978 416.202C126.523 416.491 126.077 416.219 125.664 415.379Z" fill="#E6B023"/>
<path d="M261.871 167.522C261.759 167.922 261.473 168.022 260.738 168.042C260.607 167.426 260.715 166.493 261.871 167.522Z" fill="#0C0F48"/>
<path d="M311.855 114.455C311.579 114.889 311.095 116.312 311.261 114.31C311.565 114.171 311.762 114.357 311.855 114.455Z" fill="#88603A"/>
<path d="M314.555 431.042C312.237 433.855 308.886 433.007 305.113 431.366C307.742 430.886 310.772 430.925 314.555 431.042Z" fill="#0A184D"/>
<path d="M393.61 241.46C396.522 243.703 395.529 247.082 394.188 250.875C393.64 248.273 393.58 245.243 393.61 241.46Z" fill="#0D194D"/>
<path d="M391.912 280.572C394.231 281.78 393.909 283.96 392.243 286.587C391.777 285.051 391.785 283.162 391.912 280.572Z" fill="#0C194D"/>
<path d="M393.449 235.765C394.1 235.638 394.881 235.867 393.913 236.941C393.533 236.812 393.451 236.515 393.449 235.765Z" fill="#0D194D"/>
<path d="M210.414 216.017C222.651 193.081 239.743 178.302 266.454 178.551C276.814 178.648 286.423 182.276 293.37 190.108C305.493 203.776 299.315 225.759 281.437 233.232C276.049 235.485 270.264 237.193 264.277 237.073C251.546 236.82 244.073 244.044 239.245 254.721C236.333 261.162 234.294 267.995 231.466 274.478C227.272 284.093 222.38 284.959 214.787 277.919C202.192 266.242 202.047 251.253 204.212 236.04C205.154 229.424 208.106 223.094 210.414 216.017Z" fill="#F9F5C6"/>
</svg>
